# Blender v2.93.4 OBJ File: 'cup test.blend'
# www.blender.org
mtllib cup test.mtl
o Cube
v 0.562607 0.562607 -0.566482
v 0.562607 -0.562607 -0.566482
v 0.562607 0.562607 0.566482
v 0.562607 -0.562607 0.566482
v -0.562607 0.562607 -0.566482
v -0.562607 -0.562607 -0.566482
v -0.562607 0.562607 0.566482
v -0.562607 -0.562607 0.566482
v -0.562607 -0.562607 0.000000
v 0.562607 0.562607 0.000000
v -0.562607 0.562607 0.000000
v 0.562607 -0.562607 0.000000
v -0.562607 -0.562607 0.283241
v 0.562607 0.562607 0.283241
v -0.562607 0.562607 0.283241
v 0.562607 -0.562607 0.283241
v -0.562607 0.562607 0.141620
v 0.562607 -0.562607 0.141620
v -0.562607 -0.562607 0.141620
v 0.562607 0.562607 0.141620
v -0.562607 0.562607 -0.283241
v 0.562607 -0.562607 -0.293210
v -0.562607 -0.562607 -0.283241
v 0.562607 0.562607 -0.293210
v -0.562607 -0.562607 -0.135509
v 0.562607 0.562607 -0.135509
v -0.562607 0.562607 -0.135509
v 0.562607 -0.562607 -0.135509
v 1.352940 0.562607 -0.135509
v 1.352940 0.562607 0.000000
v 1.352940 -0.558008 0.142199
v 1.352940 -0.562607 0.000000
v 1.352940 0.558008 0.142199
v 1.352940 0.558008 0.282662
v 1.352940 -0.558008 0.282662
v 1.352940 -0.562607 -0.135509
v 1.352940 -0.562607 -0.283241
v 1.352940 0.562607 -0.283241
v -0.562607 -0.562607 0.424861
v 0.562607 0.562607 0.424861
v -0.562607 0.562607 0.424861
v 0.562607 -0.562607 0.424861
v -0.562607 -0.562607 0.495672
v 0.562607 0.562607 0.495672
v -0.562607 0.562607 0.495672
v 0.562607 -0.562607 0.495672
v -0.562607 0.562607 -0.424861
v 0.562607 -0.562607 -0.424861
v -0.562607 -0.562607 -0.424861
v 0.562607 0.562607 -0.424861
v 0.000000 -0.562607 -0.566482
v 0.000000 0.562607 0.566482
v 0.000000 -0.562607 0.566482
v 0.000000 0.562607 -0.566482
v 0.000000 -0.562607 0.000000
v 0.000000 -0.562607 0.283241
v 0.000000 -0.562607 0.141620
v 0.000000 -0.562607 -0.283241
v 0.000000 -0.562607 -0.135509
v 0.000000 -0.562607 0.424861
v 0.000000 -0.562607 0.495672
v 0.000000 0.562607 0.495672
v 0.000000 -0.562607 -0.424861
v 0.281304 -0.562607 0.566482
v 0.281304 0.562607 -0.566482
v 0.281304 0.562607 0.495672
v 0.281304 -0.562607 -0.566482
v 0.281304 0.562607 0.566482
v 0.281304 -0.562607 0.000000
v 0.281304 -0.562607 0.283241
v 0.281304 -0.562607 0.141620
v 0.281304 -0.562607 -0.283241
v 0.281304 -0.562607 -0.135509
v 0.281304 -0.562607 0.424861
v 0.281304 -0.562607 0.495672
v 0.281304 -0.562607 -0.424861
v 0.421955 -0.562607 0.566482
v 0.421955 0.562607 -0.566482
v 0.421955 0.562607 0.495672
v 0.421955 -0.562607 -0.566482
v 0.421955 0.562607 0.566482
v 0.421955 -0.562607 0.000000
v 0.421955 -0.562607 0.283241
v 0.421955 -0.562607 0.141620
v 0.421955 -0.562607 -0.283241
v 0.421955 -0.562607 -0.135509
v 0.421955 -0.562607 0.424861
v 0.421955 -0.562607 0.495672
v 0.421955 -0.562607 -0.424861
v -0.281304 -0.562607 -0.566482
v -0.281304 0.562607 0.566482
v -0.281304 -0.562607 0.000000
v -0.281304 -0.562607 0.283241
v -0.281304 -0.562607 0.141620
v -0.281304 -0.562607 -0.283241
v -0.281304 -0.562607 -0.135509
v -0.281304 -0.562607 0.424861
v -0.281304 -0.562607 0.495672
v -0.281304 -0.562607 -0.424861
v -0.281304 -0.562607 0.566482
v -0.281304 0.562607 -0.566482
v -0.281304 0.562607 0.495672
v -0.421955 -0.562607 -0.566482
v -0.421955 0.562607 0.566482
v -0.421955 -0.562607 0.000000
v -0.421955 -0.562607 0.283241
v -0.421955 -0.562607 0.141620
v -0.421955 -0.562607 -0.283241
v -0.421955 -0.562607 -0.135509
v -0.421955 -0.562607 0.424861
v -0.421955 -0.562607 0.495672
v -0.421955 -0.562607 -0.424861
v -0.421955 -0.562607 0.566482
v -0.421955 0.562607 -0.566482
v 0.760190 -0.562607 0.276617
v 0.760190 0.562607 0.276617
v 0.562607 -0.562607 0.286586
v 0.562607 0.562607 0.286586
v -0.421955 0.562607 0.495672
v -0.492281 -0.562607 -0.566482
v -0.492281 0.562607 0.566482
v -0.492281 -0.562607 0.000000
v -0.492281 -0.562607 0.283241
v -0.492281 -0.562607 0.141620
v -0.492281 -0.562607 -0.283241
v -0.492281 -0.562607 -0.135509
v -0.492281 -0.562607 0.424861
v -0.492281 -0.562607 0.495672
v -0.492281 -0.562607 -0.424861
v -0.492281 -0.562607 0.566482
v -0.492281 0.562607 -0.566482
v -0.492281 0.562607 0.000000
v -0.492281 0.562607 0.283241
v -0.492281 0.562607 0.141620
v -0.492281 0.562607 -0.283241
v -0.492281 0.562607 -0.135509
v -0.492281 0.562607 0.424861
v -0.492281 0.562607 0.495672
v -0.492281 0.562607 -0.424861
v 0.492281 -0.562607 0.566482
v 0.492281 0.562607 -0.566482
v 0.492281 0.562607 0.000000
v 0.492281 0.562607 0.283241
v 0.492281 0.562607 0.141620
v 0.492281 0.562607 -0.283241
v 0.492281 0.562607 -0.135509
v 0.492281 0.562607 0.424861
v 0.492281 0.562607 0.495672
v 0.492281 0.562607 -0.424861
v 0.492281 -0.562607 -0.566482
v 0.492281 0.562607 0.566482
v 0.492281 -0.562607 0.000000
v 0.492281 -0.562607 0.283241
v 0.492281 -0.562607 0.141620
v 0.492281 -0.562607 -0.283241
v 0.492281 -0.562607 -0.135509
v 0.492281 -0.562607 0.424861
v 0.492281 -0.562607 0.495672
v 0.492281 -0.562607 -0.424861
v 0.957774 0.562607 0.000000
v 0.957774 -0.562607 0.000000
v 0.957774 -0.562607 -0.135509
v 0.957774 0.562607 -0.135509
v 0.957774 -0.562607 -0.283241
v 0.957774 0.562607 0.141620
v 0.957774 0.562607 0.283241
v 0.957774 0.562607 -0.283241
v 0.957774 -0.562607 0.283241
v 0.957774 -0.562607 0.141620
v 1.155357 0.562607 0.000000
v 1.155357 -0.562607 -0.135509
v 1.155357 -0.562607 -0.283241
v 1.155357 0.562607 0.141620
v 1.155357 0.562607 0.283241
v 1.155357 -0.562607 0.283241
v 1.155357 -0.562607 0.000000
v 1.155357 0.562607 -0.135509
v 1.155357 0.562607 -0.283241
v 1.155357 -0.562607 0.141620
v 0.760190 -0.562607 0.000000
v 0.760190 0.562607 -0.135509
v 0.760190 0.562607 -0.283241
v 0.760190 -0.562607 0.141620
v 0.760190 0.562607 0.000000
v 0.760190 -0.562607 -0.135509
v 0.760190 -0.562607 -0.283241
v 0.760190 0.562607 0.141620
v 0.760190 0.562607 0.283241
v 0.760190 -0.562607 0.283241
v -0.562607 0.562607 -0.495672
v 0.562607 -0.562607 -0.495672
v -0.562607 -0.562607 -0.495672
v 0.562607 0.562607 -0.495672
v 0.000000 0.562607 -0.495672
v 0.000000 -0.562607 -0.495672
v 0.281304 0.562607 -0.495672
v 0.281304 -0.562607 -0.495672
v 0.421955 0.562607 -0.495672
v 0.421955 -0.562607 -0.495672
v -0.281304 -0.562607 -0.495672
v -0.281304 0.562607 -0.495672
v -0.421955 -0.562607 -0.495672
v -0.421955 0.562607 -0.495672
v -0.492281 -0.562607 -0.495672
v -0.492281 0.562607 -0.495672
v 0.492281 0.562607 -0.495672
v 0.492281 -0.562607 -0.495672
vt 0.859375 0.734375
vt 0.875000 0.734375
vt 0.875000 0.750000
vt 0.859375 0.750000
vt 0.375000 0.984375
vt 0.625000 0.984375
vt 0.625000 1.000000
vt 0.375000 1.000000
vt 0.375000 0.234375
vt 0.625000 0.234375
vt 0.625000 0.250000
vt 0.375000 0.250000
vt 0.359375 0.734375
vt 0.375000 0.734375
vt 0.375000 0.750000
vt 0.359375 0.750000
vt 0.625000 0.734375
vt 0.625000 0.750000
vt 0.375000 0.484375
vt 0.625000 0.484375
vt 0.625000 0.500000
vt 0.375000 0.500000
vt 0.625000 0.625000
vt 0.625000 0.656250
vt 0.625000 0.656250
vt 0.625000 0.625000
vt 0.359375 0.595098
vt 0.375000 0.595098
vt 0.375000 0.625000
vt 0.359375 0.625000
vt 0.375000 0.093750
vt 0.625000 0.093750
vt 0.625000 0.125000
vt 0.375000 0.125000
vt 0.859375 0.595098
vt 0.875000 0.595098
vt 0.875000 0.625000
vt 0.859375 0.625000
vt 0.375000 0.031250
vt 0.625000 0.031250
vt 0.625000 0.062500
vt 0.375000 0.062500
vt 0.375000 0.595098
vt 0.375000 0.562500
vt 0.375000 0.562500
vt 0.375000 0.595098
vt 0.359375 0.656250
vt 0.375000 0.656250
vt 0.375000 0.687500
vt 0.359375 0.687500
vt 0.859375 0.656250
vt 0.875000 0.656250
vt 0.875000 0.687500
vt 0.859375 0.687500
vt 0.625000 0.595098
vt 0.625000 0.595098
vt 0.859375 0.531250
vt 0.875000 0.531250
vt 0.875000 0.562500
vt 0.859375 0.562500
vt 0.359375 0.531250
vt 0.375000 0.531250
vt 0.375000 0.562500
vt 0.359375 0.562500
vt 0.625000 0.531250
vt 0.625000 0.562500
vt 0.375000 0.154902
vt 0.625000 0.154902
vt 0.625000 0.187500
vt 0.375000 0.187500
vt 0.375000 0.625000
vt 0.375000 0.625000
vt 0.375000 0.656250
vt 0.625000 0.687500
vt 0.375000 0.687500
vt 0.625000 0.562500
vt 0.625000 0.687500
vt 0.625000 0.562500
vt 0.375000 0.687500
vt 0.375000 0.656250
vt 0.375000 0.015625
vt 0.625000 0.015625
vt 0.625000 0.687500
vt 0.625000 0.718750
vt 0.375000 0.718750
vt 0.359375 0.718750
vt 0.875000 0.718750
vt 0.859375 0.718750
vt 0.375000 0.000000
vt 0.625000 0.000000
vt 0.375000 0.515625
vt 0.625000 0.515625
vt 0.359375 0.515625
vt 0.859375 0.515625
vt 0.875000 0.515625
vt 0.625000 0.218750
vt 0.375000 0.218750
vt 0.187500 0.515625
vt 0.250000 0.515625
vt 0.250000 0.531250
vt 0.187500 0.531250
vt 0.187500 0.718750
vt 0.250000 0.718750
vt 0.250000 0.734375
vt 0.187500 0.734375
vt 0.187500 0.687500
vt 0.250000 0.687500
vt 0.187500 0.562500
vt 0.250000 0.562500
vt 0.250000 0.595098
vt 0.187500 0.595098
vt 0.187500 0.625000
vt 0.250000 0.625000
vt 0.250000 0.656250
vt 0.187500 0.656250
vt 0.375000 0.312500
vt 0.625000 0.312500
vt 0.625000 0.375000
vt 0.375000 0.375000
vt 0.250000 0.750000
vt 0.187500 0.750000
vt 0.375000 0.812500
vt 0.625000 0.812500
vt 0.625000 0.875000
vt 0.375000 0.875000
vt 0.687500 0.734375
vt 0.750000 0.734375
vt 0.750000 0.750000
vt 0.687500 0.750000
vt 0.656250 0.734375
vt 0.656250 0.750000
vt 0.375000 0.781250
vt 0.625000 0.781250
vt 0.312500 0.515625
vt 0.312500 0.531250
vt 0.312500 0.718750
vt 0.312500 0.734375
vt 0.312500 0.687500
vt 0.312500 0.562500
vt 0.312500 0.595098
vt 0.312500 0.625000
vt 0.312500 0.656250
vt 0.625000 0.437500
vt 0.375000 0.437500
vt 0.312500 0.750000
vt 0.375000 0.765625
vt 0.625000 0.765625
vt 0.640625 0.734375
vt 0.640625 0.750000
vt 0.343750 0.515625
vt 0.343750 0.531250
vt 0.343750 0.718750
vt 0.343750 0.734375
vt 0.343750 0.687500
vt 0.343750 0.562500
vt 0.343750 0.595098
vt 0.343750 0.625000
vt 0.343750 0.656250
vt 0.625000 0.468750
vt 0.375000 0.468750
vt 0.343750 0.750000
vt 0.156250 0.734375
vt 0.156250 0.750000
vt 0.375000 0.281250
vt 0.625000 0.281250
vt 0.156250 0.595098
vt 0.156250 0.625000
vt 0.156250 0.656250
vt 0.156250 0.687500
vt 0.156250 0.531250
vt 0.156250 0.562500
vt 0.156250 0.718750
vt 0.156250 0.515625
vt 0.625000 0.937500
vt 0.375000 0.937500
vt 0.812500 0.734375
vt 0.812500 0.750000
vt 0.140625 0.515625
vt 0.140625 0.531250
vt 0.140625 0.718750
vt 0.140625 0.734375
vt 0.140625 0.687500
vt 0.140625 0.562500
vt 0.140625 0.595098
vt 0.140625 0.625000
vt 0.140625 0.656250
vt 0.375000 0.265625
vt 0.625000 0.265625
vt 0.140625 0.750000
vt 0.625000 0.968750
vt 0.375000 0.968750
vt 0.843750 0.734375
vt 0.843750 0.750000
vt 0.125000 0.734375
vt 0.125000 0.750000
vt 0.125000 0.595098
vt 0.125000 0.625000
vt 0.125000 0.656250
vt 0.125000 0.687500
vt 0.125000 0.531250
vt 0.125000 0.562500
vt 0.125000 0.718750
vt 0.125000 0.515625
vt 0.375000 0.562500
vt 0.375000 0.562500
vt 0.375000 0.562500
vt 0.625000 0.562500
vt 0.625000 0.562500
vt 0.625000 0.562500
vt 0.625000 0.595098
vt 0.640625 0.595098
vt 0.640625 0.625000
vt 0.625000 0.625000
vt 0.625000 0.656250
vt 0.640625 0.656250
vt 0.640625 0.687500
vt 0.640625 0.531250
vt 0.640625 0.562500
vt 0.640625 0.718750
vt 0.640625 0.515625
vt 0.375000 0.687500
vt 0.375000 0.656250
vt 0.375000 0.656250
vt 0.375000 0.687500
vt 0.375000 0.625000
vt 0.375000 0.625000
vt 0.625000 0.595098
vt 0.625000 0.595098
vt 0.625000 0.562500
vt 0.625000 0.656250
vt 0.625000 0.687500
vt 0.625000 0.687500
vt 0.625000 0.656250
vt 0.375000 0.595098
vt 0.375000 0.595098
vt 0.625000 0.625000
vt 0.625000 0.625000
vt 0.375000 0.562500
vt 0.343750 0.500000
vt 0.359375 0.500000
vt 0.640625 0.500000
vt 0.843750 0.500000
vt 0.859375 0.500000
vt 0.843750 0.515625
vt 0.125000 0.500000
vt 0.140625 0.500000
vt 0.812500 0.500000
vt 0.812500 0.515625
vt 0.156250 0.500000
vt 0.750000 0.500000
vt 0.750000 0.515625
vt 0.187500 0.500000
vt 0.312500 0.500000
vt 0.656250 0.500000
vt 0.656250 0.515625
vt 0.250000 0.500000
vt 0.687500 0.500000
vt 0.687500 0.515625
vt 0.875000 0.500000
vn 0.0000 1.0000 0.0000
vn 0.0000 0.0000 1.0000
vn -1.0000 0.0000 0.0000
vn 0.0000 -1.0000 0.0000
vn 1.0000 0.0000 0.0000
vn 0.0000 0.0000 -1.0000
vn 0.0116 0.9998 0.0162
vn 0.0233 0.9997 0.0000
vn 0.0029 0.0000 1.0000
vn 0.0116 -0.9998 0.0162
vn 0.0233 -0.9997 0.0000
usemtl Material
s off
f 138/1/1 45/2/1 7/3/1 121/4/1
f 130/5/2 121/6/2 7/7/2 8/8/2
f 192/9/3 190/10/3 5/11/3 6/12/3
f 158/13/4 46/14/4 4/15/4 140/16/4
f 46/14/5 44/17/5 3/18/5 4/15/5
f 150/19/6 141/20/6 1/21/6 2/22/6
f 170/23/7 173/24/7 33/25/7 30/26/7
f 156/27/4 28/28/4 12/29/4 152/30/4
f 19/31/3 17/32/3 11/33/3 9/34/3
f 136/35/1 27/36/1 11/37/1 132/38/1
f 39/39/3 41/40/3 15/41/3 13/42/3
f 171/43/4 172/44/4 37/45/4 36/46/4
f 154/47/4 18/48/4 16/49/4 153/50/4
f 134/51/1 17/52/1 15/53/1 133/54/1
f 132/38/1 11/37/1 17/52/1 134/51/1
f 152/30/4 12/29/4 18/48/4 154/47/4
f 177/55/1 170/23/1 30/26/1 29/56/1
f 13/42/3 15/41/3 17/32/3 19/31/3
f 139/57/1 47/58/1 21/59/1 135/60/1
f 159/61/4 48/62/4 22/63/4 155/64/4
f 48/62/5 50/65/5 24/66/5 22/63/5
f 25/67/3 27/68/3 21/69/3 23/70/3
f 9/34/3 11/33/3 27/68/3 25/67/3
f 135/60/1 21/59/1 27/36/1 136/35/1
f 155/64/4 22/63/4 28/28/4 156/27/4
f 176/71/4 171/43/4 36/46/4 32/72/4
f 36/46/5 29/56/5 30/26/5 32/72/5
f 31/73/5 33/25/5 34/74/5 35/75/5
f 32/72/5 30/26/5 33/25/5 31/73/5
f 37/45/5 38/76/5 29/56/5 36/46/5
f 173/24/8 174/77/8 34/74/8 33/25/8
f 178/78/1 177/55/1 29/56/1 38/76/1
f 174/77/9 175/79/9 35/75/9 34/74/9
f 172/44/6 178/78/6 38/76/6 37/45/6
f 179/80/10 176/71/10 32/72/10 31/73/10
f 175/79/11 179/80/11 31/73/11 35/75/11
f 43/81/3 45/82/3 41/40/3 39/39/3
f 16/49/5 14/83/5 40/84/5 42/85/5
f 153/50/4 16/49/4 42/85/4 157/86/4
f 133/54/1 15/53/1 41/87/1 137/88/1
f 8/89/3 7/90/3 45/82/3 43/81/3
f 42/85/5 40/84/5 44/17/5 46/14/5
f 157/86/4 42/85/4 46/14/4 158/13/4
f 137/88/1 41/87/1 45/2/1 138/1/1
f 191/91/5 193/92/5 50/65/5 48/62/5
f 207/93/4 191/91/4 48/62/4 159/61/4
f 205/94/1 190/95/1 47/58/1 139/57/1
f 23/70/3 21/69/3 47/96/3 49/97/3
f 200/98/4 195/99/4 63/100/4 99/101/4
f 97/102/4 60/103/4 61/104/4 98/105/4
f 93/106/4 56/107/4 60/103/4 97/102/4
f 95/108/4 58/109/4 59/110/4 96/111/4
f 99/101/4 63/100/4 58/109/4 95/108/4
f 92/112/4 55/113/4 57/114/4 94/115/4
f 94/115/4 57/114/4 56/107/4 93/106/4
f 96/111/4 59/110/4 55/113/4 92/112/4
f 90/116/6 101/117/6 54/118/6 51/119/6
f 98/105/4 61/104/4 53/120/4 100/121/4
f 64/122/2 68/123/2 52/124/2 53/125/2
f 66/126/1 62/127/1 52/128/1 68/129/1
f 79/130/1 66/126/1 68/129/1 81/131/1
f 77/132/2 81/133/2 68/123/2 64/122/2
f 195/99/4 197/134/4 76/135/4 63/100/4
f 60/103/4 74/136/4 75/137/4 61/104/4
f 56/107/4 70/138/4 74/136/4 60/103/4
f 58/109/4 72/139/4 73/140/4 59/110/4
f 63/100/4 76/135/4 72/139/4 58/109/4
f 55/113/4 69/141/4 71/142/4 57/114/4
f 57/114/4 71/142/4 70/138/4 56/107/4
f 59/110/4 73/140/4 69/141/4 55/113/4
f 51/119/6 54/118/6 65/143/6 67/144/6
f 61/104/4 75/137/4 64/145/4 53/120/4
f 140/146/2 151/147/2 81/133/2 77/132/2
f 148/148/1 79/130/1 81/131/1 151/149/1
f 197/134/4 199/150/4 89/151/4 76/135/4
f 74/136/4 87/152/4 88/153/4 75/137/4
f 70/138/4 83/154/4 87/152/4 74/136/4
f 72/139/4 85/155/4 86/156/4 73/140/4
f 76/135/4 89/151/4 85/155/4 72/139/4
f 69/141/4 82/157/4 84/158/4 71/142/4
f 71/142/4 84/158/4 83/154/4 70/138/4
f 73/140/4 86/156/4 82/157/4 69/141/4
f 67/144/6 65/143/6 78/159/6 80/160/6
f 75/137/4 88/153/4 77/161/4 64/145/4
f 111/162/4 98/105/4 100/121/4 113/163/4
f 103/164/6 114/165/6 101/117/6 90/116/6
f 109/166/4 96/111/4 92/112/4 105/167/4
f 107/168/4 94/115/4 93/106/4 106/169/4
f 105/167/4 92/112/4 94/115/4 107/168/4
f 112/170/4 99/101/4 95/108/4 108/171/4
f 108/171/4 95/108/4 96/111/4 109/166/4
f 106/169/4 93/106/4 97/102/4 110/172/4
f 110/172/4 97/102/4 98/105/4 111/162/4
f 202/173/4 200/98/4 99/101/4 112/170/4
f 53/125/2 52/124/2 91/174/2 100/175/2
f 62/127/1 102/176/1 91/177/1 52/128/1
f 204/178/4 202/173/4 112/170/4 129/179/4
f 127/180/4 110/172/4 111/162/4 128/181/4
f 123/182/4 106/169/4 110/172/4 127/180/4
f 125/183/4 108/171/4 109/166/4 126/184/4
f 129/179/4 112/170/4 108/171/4 125/183/4
f 122/185/4 105/167/4 107/168/4 124/186/4
f 124/186/4 107/168/4 106/169/4 123/182/4
f 126/184/4 109/166/4 105/167/4 122/185/4
f 120/187/6 131/188/6 114/165/6 103/164/6
f 128/181/4 111/162/4 113/163/4 130/189/4
f 100/175/2 91/174/2 104/190/2 113/191/2
f 102/176/1 119/192/1 104/193/1 91/177/1
f 43/194/4 128/181/4 130/189/4 8/195/4
f 6/12/6 5/11/6 131/188/6 120/187/6
f 25/196/4 126/184/4 122/185/4 9/197/4
f 19/198/4 124/186/4 123/182/4 13/199/4
f 9/197/4 122/185/4 124/186/4 19/198/4
f 49/200/4 129/179/4 125/183/4 23/201/4
f 23/201/4 125/183/4 126/184/4 25/196/4
f 13/199/4 123/182/4 127/180/4 39/202/4
f 39/202/4 127/180/4 128/181/4 43/194/4
f 192/203/4 204/178/4 129/179/4 49/200/4
f 186/204/1 22/63/1 117/205/1 115/206/1
f 24/66/4 182/207/4 116/208/4 118/209/4
f 113/191/2 104/190/2 121/6/2 130/5/2
f 119/192/1 138/1/1 121/4/1 104/193/1
f 44/17/1 148/148/1 151/149/1 3/18/1
f 4/15/2 3/18/2 151/147/2 140/146/2
f 26/210/1 146/211/1 142/212/1 10/213/1
f 20/214/1 144/215/1 143/216/1 14/83/1
f 10/213/1 142/212/1 144/215/1 20/214/1
f 50/65/1 149/217/1 145/218/1 24/66/1
f 24/66/1 145/218/1 146/211/1 26/210/1
f 14/83/1 143/216/1 147/219/1 40/84/1
f 40/84/1 147/219/1 148/148/1 44/17/1
f 193/92/1 206/220/1 149/217/1 50/65/1
f 199/150/4 207/93/4 159/61/4 89/151/4
f 87/152/4 157/86/4 158/13/4 88/153/4
f 83/154/4 153/50/4 157/86/4 87/152/4
f 85/155/4 155/64/4 156/27/4 86/156/4
f 89/151/4 159/61/4 155/64/4 85/155/4
f 82/157/4 152/30/4 154/47/4 84/158/4
f 84/158/4 154/47/4 153/50/4 83/154/4
f 86/156/4 156/27/4 152/30/4 82/157/4
f 80/160/6 78/159/6 141/20/6 150/19/6
f 88/153/4 158/13/4 140/16/4 77/161/4
f 189/221/4 183/222/4 169/223/4 168/224/4
f 183/222/4 180/225/4 161/226/4 169/223/4
f 182/207/1 181/227/1 163/228/1 167/229/1
f 187/230/1 188/231/1 166/232/1 165/233/1
f 180/225/4 185/234/4 162/235/4 161/226/4
f 181/227/1 184/236/1 160/237/1 163/228/1
f 185/234/4 186/204/4 164/238/4 162/235/4
f 184/236/1 187/230/1 165/233/1 160/237/1
f 168/224/4 169/223/4 179/80/4 175/79/4
f 169/223/4 161/226/4 176/71/4 179/80/4
f 167/229/1 163/228/1 177/55/1 178/78/1
f 165/233/1 166/232/1 174/77/1 173/24/1
f 161/226/4 162/235/4 171/43/4 176/71/4
f 163/228/1 160/237/1 170/23/1 177/55/1
f 162/235/4 164/238/4 172/44/4 171/43/4
f 160/237/1 165/233/1 173/24/1 170/23/1
f 10/213/1 20/214/1 187/230/1 184/236/1
f 28/28/4 22/63/4 186/204/4 185/234/4
f 26/210/1 10/213/1 184/236/1 181/227/1
f 12/29/4 28/28/4 185/234/4 180/225/4
f 20/214/1 14/83/1 188/231/1 187/230/1
f 24/66/1 26/210/1 181/227/1 182/207/1
f 22/63/5 24/66/5 118/209/5 117/205/5
f 18/48/4 12/29/4 180/225/4 183/222/4
f 16/49/4 18/48/4 183/222/4 189/221/4
f 80/239/4 150/240/4 207/93/4 199/150/4
f 1/21/1 141/241/1 206/220/1 193/92/1
f 114/242/1 131/243/1 205/94/1 203/244/1
f 6/245/4 120/246/4 204/178/4 192/203/4
f 101/247/1 114/242/1 203/244/1 201/248/1
f 120/246/4 103/249/4 202/173/4 204/178/4
f 54/250/1 101/247/1 201/248/1 194/251/1
f 103/249/4 90/252/4 200/98/4 202/173/4
f 67/253/4 80/239/4 199/150/4 197/134/4
f 141/241/1 78/254/1 198/255/1 206/220/1
f 51/256/4 67/253/4 197/134/4 195/99/4
f 78/254/1 65/257/1 196/258/1 198/255/1
f 90/252/4 51/256/4 195/99/4 200/98/4
f 65/257/1 54/250/1 194/251/1 196/258/1
f 131/243/1 5/259/1 190/95/1 205/94/1
f 150/240/4 2/22/4 191/91/4 207/93/4
f 2/22/5 1/21/5 193/92/5 191/91/5
f 49/97/3 47/96/3 190/10/3 192/9/3
