# Blender v2.93.4 OBJ File: 'early potion pot test.blend'
# www.blender.org
mtllib early potion pot test.mtl
o Cube
v 4.931874 2.743579 -4.930382
v 4.931874 -2.743579 -4.930382
v 4.931874 2.743579 5.436938
v 4.931874 -2.743579 5.436938
v -4.931874 2.743579 -4.930382
v -4.931874 -2.743579 -4.930382
v -4.931874 2.743579 5.436938
v -4.931874 -2.743579 5.436938
v 4.931874 -2.579650 5.436938
v -4.931874 -2.579650 5.436938
v 4.931874 -2.579650 -4.930382
v -4.931874 -2.579650 -4.930382
vt 0.625000 0.500000
vt 0.625000 0.250000
vt 0.625000 0.250000
vt 0.625000 0.500000
vt 0.375000 0.750000
vt 0.625000 0.750000
vt 0.625000 1.000000
vt 0.375000 1.000000
vt 0.375000 0.000000
vt 0.625000 0.000000
vt 0.375000 0.250000
vt 0.125000 0.500000
vt 0.375000 0.500000
vt 0.125000 0.750000
vt 0.875000 0.500000
vt 0.875000 0.750000
vt 0.625000 0.750000
vt 0.625000 1.000000
vt 0.625000 0.000000
vn 0.0000 0.0000 1.0000
vn -1.0000 0.0000 0.0000
vn 0.0000 -1.0000 0.0000
vn 1.0000 0.0000 0.0000
vn 0.0000 0.0000 -1.0000
vn 0.0000 1.0000 0.0000
usemtl Material
s off
f 1/1/1 5/2/1 12/3/1 11/4/1
f 4/5/1 3/6/1 7/7/1 8/8/1
f 8/9/2 7/10/2 5/2/2 6/11/2
f 6/12/3 2/13/3 4/5/3 8/14/3
f 2/13/4 1/1/4 3/6/4 4/5/4
f 6/11/5 5/2/5 1/1/5 2/13/5
f 11/4/6 12/15/6 10/16/6 9/17/6
f 7/7/5 3/6/5 9/17/5 10/18/5
f 5/2/4 7/10/4 10/19/4 12/3/4
f 3/6/2 1/1/2 11/4/2 9/17/2
